{"title":"Dabangg 2 2012 BRRip 720p x264 Hindi - ViZNU [P2PDL]","uid":8247033,"size":738771652,"categoryP":"video","categoryS":"hd___movies","magnet":"?xt=urn:btih:5876e4ab47dafcaac2976ac2ba0ad1872da98ffe&amp;dn=Dabangg+2+2012+BRRip+720p+x264+Hindi+-+ViZNU+%5BP2PDL%5D&amp;tr=udp%3A%2F%2Ftracker.openbittorrent.com%3A80&amp;tr=udp%3A%2F%2Fopen.demonii.com%3A1337&amp;tr=udp%3A%2F%2Ftracker.coppersurfer.tk%3A6969&amp;tr=udp%3A%2F%2Fexodus.desync.com%3A6969","seeders":1,"leechers":0,"uploader":"Vitamin_X","files":-1,"time":1363084326,"description":"_________________________  Visit us at _________________________\n  &lt;a href=&quot;\nhttp://p2pdl.com&quot; rel=&quot;nofollow&quot; target=&quot;_NEW&quot;&gt;\nhttp://p2pdl.com&lt;/a&gt;  ____________________________ &lt;a href=&quot; http://p2pdl.com&quot; rel=&quot;nofollow&quot; target=&quot;_NEW&quot;&gt; http://p2pdl.com&lt;/a&gt;\n\nDabangg 2 2012 BRRip 720p x264 Hindi - ViZNU\n\nGenre: Action | Comedy | Drama | Musical | Romance\nPlot: Chulbul Pandey is transferred and promoted to Kanpur. \nHe is happily married with Rajjo. Kanpur witness a lot of \ncriminal activities daily and kidnapping, rape and murders \nare done in broad daylight. The main antagonist/villain is \nBaccha Bhaiyaa. Chulbul Pandey takes Baccha Bhaiya head on \n&amp; remains 'Dabang' as always\ndrug-related murders and is forced to do the gang's bidding.\nDirector: Arbaaz Khan\nStars: Salman Khan, Kareena Kapoor, Sonakshi Sinha\nRated: Not Rated\n\nInfo: &lt;a href=&quot;\nhttp://www.imdb.com/title/tt2112131/&quot; rel=&quot;nofollow&quot; target=&quot;_NEW&quot;&gt;\nhttp://www.imdb.com/title/tt2112131/&lt;/a&gt;\n\nGeneral\nComplete name                  : Dabangg 2 2012 BRRip 720p x264 Hindi - ViZNU.mp4\nFormat                         : MPEG-4\nFormat profile                 : Base Media\nCodec ID                       : isom\nFile size                      : 697 MiB\nDuration                       : 2h 3mn\nOverall bit rate mode          : Variable\nOverall bit rate               : 789 Kbps\n\nSource                         : 720p BluRay DDR (Thanks)\n\nVideo\nID                             : 1\nFormat                         : AVC\nFormat/Info                    : Advanced Video Codec\nFormat profile                 : High &lt;a class=&quot;__cf_email__&quot; href=&quot;/cdn-cgi/l/email-protection&quot; data-cfemail=&quot;39080979750d1708&quot;&gt;[email&amp;#160;protected]&lt;/a&gt;&lt;script cf-hash='f9e31' type=&quot;text/javascript&quot;&gt;\n/* &lt;![CDATA[ */!function(){try{var t=&quot;currentScript&quot;in document?document.currentScript:function(){for(var t=document.getElementsByTagName(&quot;script&quot;),e=t.length;e--;)if(t[e].getAttribute(&quot;cf-hash&quot;))return t[e]}();if(t&amp;&amp;t.previousSibling){var e,r,n,i,c=t.previousSibling,a=c.getAttribute(&quot;data-cfemail&quot;);if(a){for(e=&quot;&quot;,r=parseInt(a.substr(0,2),16),n=2;a.length-n;n+=2)i=parseInt(a.substr(n,2),16)^r,e+=String.fromCharCode(i);e=document.createTextNode(e),c.parentNode.replaceChild(e,c)}}}catch(u){}}();/* ]]&gt; */&lt;/script&gt;\nCodec ID/Info                  : Advanced Video Coding\nDuration                       : 2h 3mn\nBit rate                       : 703 Kbps\nWidth                          : 1 280 pixels\nHeight                         : 544 pixels\nDisplay aspect ratio           : 2.35:1\nFrame rate mode                : Constant\nFrame rate                     : 24.000 fps\nBit depth                      : 10 bits\nScan type                      : Progressive\nBits/(Pixel*Frame)             : 0.042\nStream size                    : 621 MiB (89%)\nWriting library                : x264 core 129 r2245 bc13772\n\nAudio\nFormat                         : AAC\nFormat/Info                    : Advanced Audio Codec\nDuration                       : 2h 3mn\nBit rate mode                  : Variable\nBit rate                       : 83.6 Kbps\nChannel(s)                     : 2 channels\nChannel positions              : Front: L R\nSampling rate                  : 48.0 KHz / 24.0 KHz\nStream size                    : 73.8 MiB (11%)\nLanguage                       : Hindi\n\nSubtitle                       : Yes (English)\n\nScreens: &lt;a href=&quot;\nhttp://ultraimg.com/images/FiCw7.jpg&quot; rel=&quot;nofollow&quot; target=&quot;_NEW&quot;&gt;\nhttp://ultraimg.com/images/FiCw7.jpg&lt;/a&gt; &lt;a href=&quot;\nhttp://ultraimg.com/images/JBQp.jpg&quot; rel=&quot;nofollow&quot; target=&quot;_NEW&quot;&gt;\nhttp://ultraimg.com/images/JBQp.jpg&lt;/a&gt; &lt;a href=&quot;\nhttp://ultraimg.com/images/tk4MF.jpg&quot; rel=&quot;nofollow&quot; target=&quot;_NEW&quot;&gt;\nhttp://ultraimg.com/images/tk4MF.jpg&lt;/a&gt; &lt;a href=&quot;\nhttp://ultraimg.com/images/SK95R.jpg&quot; rel=&quot;nofollow&quot; target=&quot;_NEW&quot;&gt;\nhttp://ultraimg.com/images/SK95R.jpg&lt;/a&gt;\n\nThumbs: &lt;a href=&quot;\nhttp://ultraimg.com/images/KXERl.jpg&quot; rel=&quot;nofollow&quot; target=&quot;_NEW&quot;&gt;\nhttp://ultraimg.com/images/KXERl.jpg&lt;/a&gt;\n\n----------------------------------------------------------------------------------------------------\nEncoded using revolutionary 10bit encoding, which enables us to provide you more crispier \nand sharper images at small sizes, just make sure you follow our instructions without a fault.\nRecommend to you to use latest version of VLC player. Install K-Lite Codec Pack or shark007 codecs\nin case of any kind of problem in playback (For non-VLC Media Player users). Alternatively, install\nCore AVC codecs, the fastest decoder that there is coupled with Community Center Codec Pack and play\non Windows Media Player Classic. Check sample to be sure.\nEnjoy!\n\nGreets to: VYTO, a2zRG, MusiK_KinG, Kuroyukihime, TorDigger, Ash968, StyLishSaLH, Masta and staff members at\nExtraTorrent, TPB, H33T, KAT, 1337x, PublicHD, Ahashare, BTScene,LimeTorrents, TorrentMafia,\nP2PDL, and all others.\n\nEncoder Notes: Encoder Notes: Looking For Early Access To Anything You Can Provide DVDScr, R5, DVDR, BluRay, Direct\nAudio, Music Releases and Seedboxes. We require dedicated servers, so as to do more and fast releases of movies.\nIf You Got anything to offer contact us at &quot;&lt;a class=&quot;__cf_email__&quot; href=&quot;/cdn-cgi/l/email-protection&quot; data-cfemail=&quot;e3939184a38b96908bcd808c8e&quot;&gt;[email&amp;#160;protected]&lt;/a&gt;&lt;script cf-hash='f9e31' type=&quot;text/javascript&quot;&gt;\n/* &lt;![CDATA[ */!function(){try{var t=&quot;currentScript&quot;in document?document.currentScript:function(){for(var t=document.getElementsByTagName(&quot;script&quot;),e=t.length;e--;)if(t[e].getAttribute(&quot;cf-hash&quot;))return t[e]}();if(t&amp;&amp;t.previousSibling){var e,r,n,i,c=t.previousSibling,a=c.getAttribute(&quot;data-cfemail&quot;);if(a){for(e=&quot;&quot;,r=parseInt(a.substr(0,2),16),n=2;a.length-n;n+=2)i=parseInt(a.substr(n,2),16)^r,e+=String.fromCharCode(i);e=document.createTextNode(e),c.parentNode.replaceChild(e,c)}}}catch(u){}}();/* ]]&gt; */&lt;/script&gt;&quot;.","torrent":{"xt":"urn:btih:5876e4ab47dafcaac2976ac2ba0ad1872da98ffe","amp;dn":"Dabangg+2+2012+BRRip+720p+x264+Hindi+-+ViZNU+%5BP2PDL%5D","amp;tr":["udp%3A%2F%2Ftracker.openbittorrent.com%3A80","udp%3A%2F%2Fopen.demonii.com%3A1337","udp%3A%2F%2Ftracker.coppersurfer.tk%3A6969","udp%3A%2F%2Fexodus.desync.com%3A6969"],"infoHash":"5876e4ab47dafcaac2976ac2ba0ad1872da98ffe","infoHashBuffer":{"type":"Buffer","data":[88,118,228,171,71,218,252,170,194,151,106,194,186,10,209,135,45,169,143,254]},"announce":[],"urlList":[]}}